<svg width="512" height="512" viewBox="0 0 36 36" fill="none" xmlns="http://www.w3.org/2000/svg">
<circle cx="18" cy="18" r="18" fill="#2196F3"/>
<path d="M18.0003 7.08089C16.6602 7.08089 15.5738 8.16726 15.5738 9.50736C15.5738 10.8475 16.6602 11.9338 18.0003 11.9338C19.3404 11.9338 20.4268 10.8475 20.4268 9.50736C20.4268 8.16726 19.3404 7.08089 18.0003 7.08089Z" fill="white"/>
<path d="M18.0003 28.9191C19.3348 28.9191 20.4268 27.8272 20.4268 26.4927L20.4268 16.7868C20.4268 15.4522 19.3348 14.3603 18.0003 14.3603C16.6657 14.3603 15.5738 15.4522 15.5738 16.7868L15.5738 26.4927C15.5738 27.8272 16.6657 28.9191 18.0003 28.9191Z" fill="white"/>
</svg>
