<svg width="14" height="8" viewBox="0 0 14 8" fill="none" xmlns="http://www.w3.org/2000/svg">
<path d="M7 7.81055C6.76758 7.81055 6.5625 7.72168 6.38477 7.53711L1.17578 2.21191C1.02539 2.06152 0.943359 1.87012 0.943359 1.65137C0.943359 1.20703 1.29199 0.858398 1.73633 0.858398C1.95508 0.858398 2.15332 0.947266 2.31055 1.09766L7 5.90332L11.6895 1.09766C11.8398 0.947266 12.0449 0.858398 12.2637 0.858398C12.7012 0.858398 13.0498 1.20703 13.0498 1.65137C13.0498 1.87695 12.9746 2.06152 12.8242 2.21191L7.61523 7.53711C7.44434 7.72168 7.23242 7.81055 7 7.81055Z" fill="black" fill-opacity="0.87"/>
</svg>
